Coordinates
version=1
nRows=30
nColumns=38
inDegrees=no

Units are S.I. units (second, meters, Newtons, ...)
If the header above contains a line with 'inDegrees', this indicates whether rotational values are in degrees (yes) or radians (no).

endheader
time	pelvis_tilt	pelvis_list	pelvis_rotation	pelvis_tx	pelvis_ty	pelvis_tz	hip_flexion_r	hip_adduction_r	hip_rotation_r	knee_angle_r	ankle_angle_r	subtalar_angle_r	mtp_angle_r	hip_flexion_l	hip_adduction_l	hip_rotation_l	knee_angle_l	ankle_angle_l	subtalar_angle_l	mtp_angle_l	lumbar_extension	lumbar_bending	lumbar_rotation	arm_flex_r	arm_add_r	arm_rot_r	elbow_flex_r	pro_sup_r	wrist_flex_r	wrist_dev_r	arm_flex_l	arm_add_l	arm_rot_l	elbow_flex_l	pro_sup_l	wrist_flex_l	wrist_dev_l
60	0.18626	1.44728	1.24721	0.745821	0.0754358	0.992405	0.262639	-0.060142	-0.0831263	0.301212	0.0895786	0	0	0.157737	-0.0552851	-0.306422	0.169051	0.0702231	0	0	-0.0522971	0.045607	0.12238	0.100957	-0.181848	0.067187	0.522807	1.34285	0	0	0.133606	-0.195073	0.483252	0.549314	1.44106	0	0
60.01	0.206038	1.44909	1.22719	0.746294	0.0764348	0.993255	0.250902	-0.0576002	-0.0861371	0.285421	0.084609	0	0	0.148153	-0.0559597	-0.304972	0.156984	0.0640739	0	0	-0.0470379	0.0490648	0.120995	0.100567	-0.180427	0.0668868	0.523618	1.34179	0	0	0.131236	-0.192743	0.483544	0.553499	1.44364	0	0
60.02	0.227453	1.45107	1.20596	0.746746	0.0774453	0.994074	0.238973	-0.0549762	-0.0888567	0.269889	0.0795595	0	0	0.138407	-0.0566705	-0.303013	0.145072	0.0585499	0	0	-0.0419239	0.0525666	0.119249	0.100245	-0.1791	0.0673717	0.523486	1.34177	0	0	0.129022	-0.190303	0.483896	0.557316	1.44608	0	0
60.03	0.2498	1.45314	1.18396	0.747192	0.0784146	0.994852	0.227026	-0.052284	-0.0907885	0.254453	0.0741641	0	0	0.128531	-0.0573483	-0.300615	0.13308	0.0529798	0	0	-0.0371806	0.0559741	0.117476	0.0999634	-0.178059	0.069573	0.522415	1.34288	0	0	0.127379	-0.18744	0.483679	0.55991	1.4481	0	0
60.04	0.330395	1.45178	1.10284	0.747403	0.0788971	0.996468	0.217908	-0.0374783	-0.0815848	0.239972	0.0588787	0	0	0.1202	-0.0666679	-0.297644	0.122806	0.0459775	0	0	-0.0349158	0.0694579	0.117186	0.101849	-0.181032	0.0714841	0.520749	1.34376	0	0	0.128083	-0.178736	0.482405	0.55671	1.44907	0	0
60.05	0.292887	1.45661	1.14248	0.748069	0.0804107	0.996137	0.204517	-0.0472861	-0.0947394	0.225514	0.0647982	0	0	0.109834	-0.0584941	-0.29387	0.109866	0.0422435	0	0	-0.0267229	0.0622674	0.113187	0.0983163	-0.175849	0.0712165	0.520809	1.34438	0	0	0.123292	-0.183102	0.485267	0.566123	1.4506	0	0
60.06	0.378256	1.45491	1.05741	0.748242	0.0810758	0.997688	0.194173	-0.0324225	-0.0851363	0.209457	0.0489186	0	0	0.101153	-0.0681217	-0.290358	0.0997041	0.0355265	0	0	-0.0242698	0.0760656	0.112251	0.0995558	-0.178873	0.0708789	0.518534	1.34441	0	0	0.123857	-0.174005	0.483439	0.561796	1.4517	0	0
60.07	0.401114	1.45608	1.03627	0.74863	0.0820743	0.998186	0.183626	-0.030236	-0.0876299	0.196173	0.0448402	0	0	0.0926123	-0.0689093	-0.286113	0.0890045	0.0305379	0	0	-0.0191537	0.0791126	0.109561	0.0984105	-0.177893	0.0694146	0.517298	1.34491	0	0	0.122156	-0.171771	0.484261	0.56471	1.45247	0	0
60.08	0.422691	1.45713	1.01684	0.748976	0.083038	0.998592	0.173755	-0.028171	-0.0901026	0.183971	0.0410315	0	0	0.0846183	-0.0697043	-0.281678	0.0789004	0.0260053	0	0	-0.014014	0.0819374	0.106449	0.0970873	-0.177002	0.0688145	0.516026	1.34633	0	0	0.120378	-0.169747	0.484761	0.56747	1.45345	0	0
60.09	0.441683	1.45808	1.00009	0.74932	0.0839832	0.998912	0.164537	-0.0264111	-0.0916815	0.172423	0.0375457	0	0	0.0769878	-0.0703319	-0.277299	0.0690477	0.021849	0	0	-0.00880201	0.0843672	0.103199	0.0956083	-0.176013	0.0681397	0.51477	1.34765	0	0	0.118558	-0.167972	0.485296	0.570215	1.4548	0	0
60.1	0.459169	1.45895	0.984937	0.749687	0.0849141	0.999184	0.155793	-0.0248654	-0.0924245	0.161315	0.0342202	0	0	0.0694114	-0.0708108	-0.272588	0.0589049	0.017404	0	0	-0.00364246	0.0864989	0.0999651	0.0941647	-0.175028	0.0663592	0.513384	1.34803	0	0	0.116902	-0.166349	0.486102	0.57267	1.45634	0	0
60.11	0.475388	1.45982	0.971085	0.750072	0.085842	0.999407	0.147366	-0.0234121	-0.0924727	0.150904	0.0313316	0	0	0.0617679	-0.0711086	-0.267667	0.0484807	0.0127127	0	0	0.00134047	0.0882745	0.096838	0.0926807	-0.174121	0.0652051	0.511429	1.34895	0	0	0.115399	-0.164818	0.486796	0.574539	1.45793	0	0
60.12	0.488586	1.46068	0.960166	0.75044	0.0867509	0.999567	0.140086	-0.0223868	-0.0926011	0.142462	0.0294465	0	0	0.0541361	-0.0710831	-0.262453	0.03764	0.00778663	0	0	0.00627409	0.0896023	0.0938159	0.091025	-0.173251	0.064512	0.509244	1.35002	0	0	0.11385	-0.163439	0.487186	0.576384	1.45959	0	0
60.13	0.499514	1.46146	0.951316	0.750812	0.0875837	0.999678	0.134277	-0.02163	-0.0924965	0.136364	0.0287588	0	0	0.0468618	-0.0709194	-0.257253	0.0270118	0.00316836	0	0	0.0108853	0.0906143	0.0909634	0.0895139	-0.172444	0.0639595	0.50678	1.35035	0	0	0.112456	-0.162152	0.487289	0.577974	1.46127	0	0
60.14	0.508647	1.46223	0.943981	0.75121	0.0883168	0.999742	0.129983	-0.0210459	-0.0922687	0.132753	0.0289176	0	0	0.0399048	-0.0706646	-0.252305	0.0167073	-0.00111985	0	0	0.0150333	0.0913312	0.0884539	0.0883066	-0.171676	0.0628673	0.504686	1.34923	0	0	0.111334	-0.16101	0.487536	0.579414	1.46281	0	0
60.15	0.514948	1.46291	0.939434	0.751606	0.0890948	0.999742	0.127043	-0.0207756	-0.0926247	0.131413	0.0300488	0	0	0.0327704	-0.0700599	-0.24696	0.00537321	-0.0058998	0	0	0.0198793	0.09177	0.086023	0.0867726	-0.170856	0.0626845	0.502021	1.34648	0	0	0.109837	-0.160104	0.488655	0.580694	1.46433	0	0
60.16	0.51943	1.46367	0.936599	0.752009	0.0898325	0.999717	0.125118	-0.0207241	-0.0932615	0.13188	0.0317802	0	0	0.0265035	-0.0694109	-0.244011	0	-0.00876394	0	0	0.0244149	0.0918468	0.0838409	0.0853015	-0.170147	0.0633127	0.499399	1.34008	0	0	0.108418	-0.159308	0.489794	0.581761	1.46341	0	0
60.17	0.522761	1.4644	0.934874	0.752431	0.0905158	0.999671	0.12403	-0.0206806	-0.0941269	0.13366	0.0335901	0	0	0.0210519	-0.0688126	-0.242677	0	-0.00994032	0	0	0.0286354	0.0917097	0.0817613	0.0838207	-0.170135	0.0682621	0.496894	1.32986	0	0	0.107066	-0.158832	0.491214	0.582827	1.45822	0	0
60.18	0.525559	1.46504	0.933746	0.752834	0.0911745	0.999585	0.123516	-0.0206076	-0.0954336	0.136299	0.0355455	0	0	0.0161663	-0.0683111	-0.241418	0	-0.010869	0	0	0.0328706	0.0915098	0.0796125	0.0822196	-0.170508	0.075287	0.495026	1.3129	0	0	0.105793	-0.158816	0.49456	0.58373	1.44691	0	0
60.19	0.538023	1.4683	0.92681	0.753267	0.0913258	0.999565	0.121378	-0.0170458	-0.0903157	0.141804	0.0333641	0	0	0.0195734	-0.0690374	-0.239205	0	-0.0105067	0	0	0.0330753	0.0893697	0.0761502	0.0809027	-0.172494	0.0934786	0.495883	1.26727	0	0	0.107088	-0.161467	0.508931	0.586428	1.40697	0	0
60.2	0.536917	1.46894	0.930142	0.753564	0.0920935	0.999484	0.121037	-0.0173303	-0.0926595	0.14406	0.0354546	0	0	0.0181539	-0.0689137	-0.237926	0	-0.0108173	0	0	0.0366262	0.0887569	0.0736927	0.0815811	-0.163948	0.0469661	0.485076	1.36123	0	0	0.104306	-0.154632	0.477264	0.579853	1.48059	0	0
60.21	0.541829	1.47027	0.927955	0.753907	0.0926171	0.999472	0.119796	-0.0176543	-0.0952066	0.14651	0.0376067	0	0	0.0162356	-0.0687871	-0.236335	0	-0.0106794	0	0	0.0386259	0.087881	0.0704893	0.0814766	-0.162761	0.0460437	0.480824	1.36246	0	0	0.103147	-0.153734	0.473193	0.578919	1.48015	0	0
60.22	0.548948	1.47175	0.923821	0.754241	0.0931378	0.999504	0.117991	-0.017831	-0.0980069	0.148447	0.0396268	0	0	0.014372	-0.0687802	-0.234642	0	-0.0103851	0	0	0.0399987	0.0869622	0.0670579	0.0817134	-0.161522	0.0461268	0.476029	1.36362	0	0	0.102257	-0.152808	0.468522	0.577381	1.47885	0	0
60.23	0.559117	1.47332	0.916779	0.754577	0.0936614	0.99958	0.115416	-0.0177888	-0.100615	0.149413	0.0411408	0	0	0.0123982	-0.0689884	-0.233019	0	-0.0100627	0	0	0.0408187	0.0860993	0.0637405	0.0819167	-0.160215	0.0459169	0.471441	1.36413	0	0	0.10181	-0.152045	0.465288	0.574998	1.4786	0	0
60.24	0.571973	1.47489	0.907016	0.754927	0.094183	0.999685	0.112153	-0.0174663	-0.102692	0.149211	0.0418465	0	0	0.0103183	-0.069394	-0.231653	0	-0.00979614	0	0	0.0413028	0.0853632	0.0606978	0.081885	-0.158917	0.0447639	0.467532	1.36333	0	0	0.101575	-0.151295	0.463088	0.571827	1.47855	0	0
60.25	0.585157	1.47646	0.896653	0.755297	0.0946981	0.999814	0.108845	-0.0171478	-0.105016	0.148808	0.0426441	0	0	0.00821458	-0.0697822	-0.230697	0	-0.00940313	0	0	0.0416147	0.0846664	0.0582047	0.0815248	-0.157986	0.0455342	0.463831	1.36244	0	0	0.101386	-0.150457	0.461314	0.568073	1.47801	0	0
60.26	0.597936	1.47797	0.886255	0.755701	0.0952066	0.999959	0.105617	-0.0168258	-0.107271	0.148299	0.0433538	0	0	0.00604312	-0.0701518	-0.230109	0	-0.0091809	0	0	0.0418306	0.0839625	0.0565961	0.0807366	-0.157197	0.0456199	0.460962	1.36022	0	0	0.10135	-0.149617	0.460142	0.563935	1.4772	0	0
60.27	0.610007	1.47921	0.876188	0.756334	0.095408	1.00013	0.102644	-0.0164392	-0.108399	0.147966	0.0438226	0	0	0.00391582	-0.0705524	-0.229729	0	-0.00887121	0	0	0.0419705	0.083182	0.0557671	0.0795809	-0.156398	0.0439432	0.458467	1.35784	0	0	0.101567	-0.148992	0.460219	0.559769	1.47549	0	0
60.28	0.621571	1.48058	0.865757	0.756635	0.0962353	1.00021	0.0995962	-0.0159202	-0.109856	0.147066	0.0447962	0	0	0.0015534	-0.0710067	-0.229754	0	-0.00875923	0	0	0.0424949	0.0826398	0.0558275	0.0779405	-0.155793	0.0421332	0.455758	1.35698	0	0	0.101386	-0.147804	0.45881	0.554449	1.47618	0	0
60.29	0.632212	1.48132	0.856026	0.757318	0.096427	1.00031	0.0968827	-0.0151418	-0.109499	0.146031	0.0448846	0	0	-0.000372509	-0.0716779	-0.229881	0	-0.00829845	0	0	0.0430753	0.0823176	0.0563552	0.0759638	-0.155594	0.0423539	0.453709	1.35671	0	0	0.101395	-0.146874	0.458535	0.549237	1.475	0	0
